<?xml version="1.0" encoding="UTF-8" standalone="no"?><!DOCTYPE svg PUBLIC "-//W3C//DTD SVG 1.1//EN" "http://www.w3.org/Graphics/SVG/1.1/DTD/svg11.dtd"><!-- Generated by graphviz version 2.40.1 (20161225.0304)
 --><!-- Title: G Pages: 1 --><svg xmlns="http://www.w3.org/2000/svg" xmlns:xlink="http://www.w3.org/1999/xlink" width="460pt" height="190pt" viewBox="0.00 0.00 459.54 190.22">
<g id="graph0" class="graph" transform="scale(1 1) rotate(0) translate(4 186.2154)">
<title>G</title>
<polygon fill="#ffffff" stroke="transparent" points="-4,4 -4,-186.2154 455.5449,-186.2154 455.5449,4 -4,4"/>
<!-- x₁ -->
<g id="node1" class="node">
<title>x₁</title>
<ellipse fill="#ffff00" stroke="#ffff00" cx="23.1077" cy="-159.1077" rx="23.2159" ry="23.2159"/>
<text text-anchor="middle" x="23.1077" y="-154.9077" font-family="Times,serif" font-size="14.00" fill="#000000">x₁</text>
</g>
<!-- Y -->
<g id="node4" class="node">
<title>Y</title>
<ellipse fill="#1e90ff" stroke="#1e90ff" cx="159.3214" cy="-107.1077" rx="18.0157" ry="18.0157"/>
<text text-anchor="middle" x="159.3214" y="-102.9077" font-family="Times,serif" font-size="14.00" fill="#000000">Y</text>
</g>
<!-- x₁&#45;&gt;Y -->
<g id="edge1" class="edge">
<title>x₁-&gt;Y</title>
<path fill="none" stroke="#000000" d="M46.2896,-160.1107C67.479,-160.0761 99.1078,-157.5733 123.3136,-145.1077 130.4241,-141.4459 136.9009,-135.8114 142.3396,-129.993"/>
<polygon fill="#000000" stroke="#000000" points="145.2379,-131.9889 149.0744,-122.113 139.9166,-127.4409 145.2379,-131.9889"/>
<text text-anchor="middle" x="93.7645" y="-163.3077" font-family="Times,serif" font-size="14.00" fill="#000000">w₁¹</text>
</g>
<!-- x₁&#45;&gt;Y -->
<g id="edge6" class="edge">
<title>x₁-&gt;Y</title>
<path fill="none" stroke="#000000" d="M39.2813,-141.9822C46.3381,-135.4823 55.0816,-128.6156 64.2154,-124.3077 87.2018,-113.4663 116.2809,-109.4327 136.1964,-107.9462"/>
<polygon fill="#000000" stroke="#000000" points="136.4325,-109.6845 141.305,-107.6057 136.1997,-106.1922 136.4325,-109.6845"/>
<text text-anchor="middle" x="93.7645" y="-128.3077" font-family="Times,serif" font-size="14.00" fill="#000000">Activation</text>
</g>
<!-- x₂ -->
<g id="node2" class="node">
<title>x₂</title>
<ellipse fill="#ffff00" stroke="#ffff00" cx="23.1077" cy="-87.1077" rx="23.2159" ry="23.2159"/>
<text text-anchor="middle" x="23.1077" y="-82.9077" font-family="Times,serif" font-size="14.00" fill="#000000">x₂</text>
</g>
<!-- x₂&#45;&gt;Y -->
<g id="edge2" class="edge">
<title>x₂-&gt;Y</title>
<path fill="none" stroke="#000000" d="M46.1823,-84.3788C66.7486,-82.6507 97.4996,-81.8104 123.3136,-88.3077 127.278,-89.3055 131.2933,-90.8154 135.1332,-92.5543"/>
<polygon fill="#000000" stroke="#000000" points="133.6913,-95.7481 144.188,-97.1874 136.8799,-89.5165 133.6913,-95.7481"/>
<text text-anchor="middle" x="93.7645" y="-92.3077" font-family="Times,serif" font-size="14.00" fill="#000000">w₂¹</text>
</g>
<!-- x₃ -->
<g id="node3" class="node">
<title>x₃</title>
<ellipse fill="#ffff00" stroke="#ffff00" cx="23.1077" cy="-23.1077" rx="23.2159" ry="23.2159"/>
<text text-anchor="middle" x="23.1077" y="-18.9077" font-family="Times,serif" font-size="14.00" fill="#000000">x₃</text>
</g>
<!-- x₃&#45;&gt;Y -->
<g id="edge3" class="edge">
<title>x₃-&gt;Y</title>
<path fill="none" stroke="#000000" d="M45.8684,-28.3731C67.3402,-34.1389 99.673,-44.95 123.3136,-62.3077 131.0604,-67.9956 138.0748,-75.7448 143.8114,-83.1992"/>
<polygon fill="#000000" stroke="#000000" points="141.2363,-85.612 149.926,-91.6734 146.9129,-81.516 141.2363,-85.612"/>
<text text-anchor="middle" x="93.7645" y="-66.3077" font-family="Times,serif" font-size="14.00" fill="#000000">w₃¹</text>
</g>
<!-- Z₁ -->
<g id="node5" class="node">
<title>Z₁</title>
<ellipse fill="#ff7256" stroke="#ff7256" cx="296.6061" cy="-143.1077" rx="24.3586" ry="24.3586"/>
<text text-anchor="middle" x="296.6061" y="-138.9077" font-family="Times,serif" font-size="14.00" fill="#000000">Z₁</text>
</g>
<!-- Y&#45;&gt;Z₁ -->
<g id="edge4" class="edge">
<title>Y-&gt;Z₁</title>
<path fill="none" stroke="#000000" d="M169.3101,-122.6606C175.6403,-131.0116 184.6423,-140.5116 195.3293,-145.1077 216.5157,-154.2193 242.5728,-153.4709 262.9507,-150.5734"/>
<polygon fill="#000000" stroke="#000000" points="263.7399,-153.9904 273.0335,-148.9031 262.5959,-147.0845 263.7399,-153.9904"/>
<text text-anchor="middle" x="224.8784" y="-156.3077" font-family="Times,serif" font-size="14.00" fill="#000000">w₁²</text>
</g>
<!-- Y&#45;&gt;Z₁ -->
<g id="edge7" class="edge">
<title>Y-&gt;Z₁</title>
<path fill="none" stroke="#000000" d="M177.5086,-109.0775C196.8811,-111.4791 228.2915,-116.2485 254.4275,-124.3077 259.5892,-125.8993 264.9555,-127.9554 270.0612,-130.1211"/>
<polygon fill="#000000" stroke="#000000" points="269.3809,-131.7336 274.6634,-132.1308 270.7815,-128.5261 269.3809,-131.7336"/>
<text text-anchor="middle" x="224.8784" y="-128.3077" font-family="Times,serif" font-size="14.00" fill="#000000">Activation</text>
</g>
<!-- Z₂ -->
<g id="node6" class="node">
<title>Z₂</title>
<ellipse fill="#ff7256" stroke="#ff7256" cx="296.6061" cy="-70.1077" rx="24.3586" ry="24.3586"/>
<text text-anchor="middle" x="296.6061" y="-65.9077" font-family="Times,serif" font-size="14.00" fill="#000000">Z₂</text>
</g>
<!-- Y&#45;&gt;Z₂ -->
<g id="edge5" class="edge">
<title>Y-&gt;Z₂</title>
<path fill="none" stroke="#000000" d="M175.4766,-98.5625C181.5685,-95.6112 188.643,-92.4991 195.3293,-90.3077 217.1365,-83.1606 242.4549,-78.1107 262.3218,-74.8475"/>
<polygon fill="#000000" stroke="#000000" points="263.1159,-78.2659 272.4532,-73.2594 262.0318,-71.3503 263.1159,-78.2659"/>
<text text-anchor="middle" x="224.8784" y="-94.3077" font-family="Times,serif" font-size="14.00" fill="#000000">w₂²</text>
</g>
<!-- Y&#45;&gt;Z₂ -->
<g id="edge8" class="edge">
<title>Y-&gt;Z₂</title>
<path fill="none" stroke="#000000" d="M165.9414,-90.2341C171.7063,-78.0905 181.3523,-62.614 195.3293,-55.3077 218.4612,-43.2157 248.3914,-49.873 269.7024,-57.7443"/>
<polygon fill="#000000" stroke="#000000" points="269.0881,-59.383 274.3831,-59.5435 270.3439,-56.116 269.0881,-59.383"/>
<text text-anchor="middle" x="224.8784" y="-60.3077" font-family="Times,serif" font-size="14.00" fill="#000000">Activation</text>
</g>
<!-- ŷ₁ -->
<g id="node7" class="node">
<title>ŷ₁</title>
<ellipse fill="none" stroke="#000000" cx="423.6087" cy="-143.1077" rx="27.8725" ry="18"/>
<text text-anchor="middle" x="423.6087" y="-138.9077" font-family="Times,serif" font-size="14.00" fill="#000000">ŷ₁</text>
</g>
<!-- Z₁&#45;&gt;ŷ₁ -->
<g id="edge9" class="edge">
<title>Z₁-&gt;ŷ₁</title>
<path fill="none" stroke="#000000" d="M320.7933,-143.1077C340.5153,-143.1077 368.5785,-143.1077 390.4046,-143.1077"/>
<polygon fill="#000000" stroke="#000000" points="390.5262,-144.8578 395.5261,-143.1077 390.5261,-141.3578 390.5262,-144.8578"/>
<text text-anchor="middle" x="358.2287" y="-147.3077" font-family="Times,serif" font-size="14.00" fill="#000000">Output</text>
</g>
<!-- ŷ₂ -->
<g id="node8" class="node">
<title>ŷ₂</title>
<ellipse fill="none" stroke="#000000" cx="423.6087" cy="-70.1077" rx="27.8725" ry="18"/>
<text text-anchor="middle" x="423.6087" y="-65.9077" font-family="Times,serif" font-size="14.00" fill="#000000">ŷ₂</text>
</g>
<!-- Z₂&#45;&gt;ŷ₂ -->
<g id="edge10" class="edge">
<title>Z₂-&gt;ŷ₂</title>
<path fill="none" stroke="#000000" d="M320.7933,-70.1077C340.5153,-70.1077 368.5785,-70.1077 390.4046,-70.1077"/>
<polygon fill="#000000" stroke="#000000" points="390.5262,-71.8578 395.5261,-70.1077 390.5261,-68.3578 390.5262,-71.8578"/>
<text text-anchor="middle" x="358.2287" y="-74.3077" font-family="Times,serif" font-size="14.00" fill="#000000">Output</text>
</g>
</g>
</svg>