<?xml version="1.0" encoding="UTF-8" standalone="no"?><!DOCTYPE svg PUBLIC "-//W3C//DTD SVG 1.1//EN" "http://www.w3.org/Graphics/SVG/1.1/DTD/svg11.dtd"><!-- Generated by graphviz version 2.40.1 (20161225.0304)
 --><!-- Title: G Pages: 1 --><svg xmlns="http://www.w3.org/2000/svg" xmlns:xlink="http://www.w3.org/1999/xlink" width="588pt" height="432pt" viewBox="0.00 0.00 588.00 432.00">
<g id="graph0" class="graph" transform="scale(1 1) rotate(0) translate(4 428)">
<title>G</title>
<polygon fill="#ffffff" stroke="transparent" points="-4,4 -4,-428 584,-428 584,4 -4,4"/>
<g id="clust1" class="cluster">
<title>cluster_Input</title>
<text text-anchor="start" x="12.4842" y="-342.4" font-family="Times,serif" font-weight="bold" font-size="14.00" fill="#000000">Input layer</text>
</g>
<g id="clust2" class="cluster">
<title>cluster_Hidden</title>
<text text-anchor="start" x="117.4039" y="-369.4" font-family="Times,serif" font-weight="bold" font-size="14.00" fill="#000000">Hidden layer 2</text>
</g>
<g id="clust3" class="cluster">
<title>cluster_Hidden1</title>
<text text-anchor="start" x="244.4039" y="-396.4" font-family="Times,serif" font-weight="bold" font-size="14.00" fill="#000000">Hidden layer 3</text>
</g>
<g id="clust4" class="cluster">
<title>cluster_Hidden2</title>
<text text-anchor="start" x="371.4039" y="-396.4" font-family="Times,serif" font-weight="bold" font-size="14.00" fill="#000000">Hidden layer 4</text>
</g>
<g id="clust5" class="cluster">
<title>cluster_Output</title>
<text text-anchor="start" x="497.8159" y="-234.4" font-family="Times,serif" font-weight="bold" font-size="14.00" fill="#000000">Output layer</text>
</g>
<!-- Input1 -->
<g id="node1" class="node">
<title>Input1</title>
<ellipse fill="#66c2a5" stroke="#000000" cx="42" cy="-88" rx="18" ry="18"/>
</g>
<!-- Extra1 -->
<g id="node6" class="node">
<title>Extra1</title>
<ellipse fill="#8da0cb" stroke="#000000" cx="158" cy="-223" rx="18" ry="18"/>
</g>
<!-- Input1&#45;&gt;Extra1 -->
<g id="edge1" class="edge">
<title>Input1-&gt;Extra1</title>
<path fill="none" stroke="#000000" d="M53.7611,-101.6874C73.9967,-125.2375 115.5411,-173.5867 139.6238,-201.6139"/>
<polygon fill="#000000" stroke="#000000" points="137.036,-203.9727 146.2078,-209.2763 142.3452,-199.4107 137.036,-203.9727"/>
</g>
<!-- Extra2 -->
<g id="node7" class="node">
<title>Extra2</title>
<ellipse fill="#8da0cb" stroke="#000000" cx="158" cy="-169" rx="18" ry="18"/>
</g>
<!-- Input1&#45;&gt;Extra2 -->
<g id="edge2" class="edge">
<title>Input1-&gt;Extra2</title>
<path fill="none" stroke="#000000" d="M57.165,-98.5893C76.9868,-112.4304 111.8897,-136.8023 134.982,-152.9271"/>
<polygon fill="#000000" stroke="#000000" points="132.9953,-155.8086 143.1981,-158.6642 137.0029,-150.0694 132.9953,-155.8086"/>
</g>
<!-- Extra3 -->
<g id="node8" class="node">
<title>Extra3</title>
<ellipse fill="#8da0cb" stroke="#000000" cx="158" cy="-115" rx="18" ry="18"/>
</g>
<!-- Input1&#45;&gt;Extra3 -->
<g id="edge3" class="edge">
<title>Input1-&gt;Extra3</title>
<path fill="none" stroke="#000000" d="M59.6179,-92.1007C78.4398,-96.4817 108.5254,-103.4844 130.4763,-108.5936"/>
<polygon fill="#000000" stroke="#000000" points="129.6832,-112.0025 140.2163,-110.8607 131.2701,-105.1847 129.6832,-112.0025"/>
</g>
<!-- Extra4 -->
<g id="node9" class="node">
<title>Extra4</title>
<ellipse fill="#8da0cb" stroke="#000000" cx="158" cy="-61" rx="18" ry="18"/>
</g>
<!-- Input1&#45;&gt;Extra4 -->
<g id="edge4" class="edge">
<title>Input1-&gt;Extra4</title>
<path fill="none" stroke="#000000" d="M59.6179,-83.8993C78.4398,-79.5183 108.5254,-72.5156 130.4763,-67.4064"/>
<polygon fill="#000000" stroke="#000000" points="131.2701,-70.8153 140.2163,-65.1393 129.6832,-63.9975 131.2701,-70.8153"/>
</g>
<!-- Extra5 -->
<g id="node10" class="node">
<title>Extra5</title>
<ellipse fill="#8da0cb" stroke="#000000" cx="158" cy="-331" rx="18" ry="18"/>
</g>
<!-- Input1&#45;&gt;Extra5 -->
<g id="edge5" class="edge">
<title>Input1-&gt;Extra5</title>
<path fill="none" stroke="#000000" d="M49.7912,-104.3212C69.6025,-145.8224 122.0169,-255.6217 145.8708,-305.5915"/>
<polygon fill="#000000" stroke="#000000" points="142.7761,-307.2331 150.2427,-314.7498 149.0932,-304.2175 142.7761,-307.2331"/>
</g>
<!-- Extra6 -->
<g id="node11" class="node">
<title>Extra6</title>
<ellipse fill="#8da0cb" stroke="#000000" cx="158" cy="-277" rx="18" ry="18"/>
</g>
<!-- Input1&#45;&gt;Extra6 -->
<g id="edge6" class="edge">
<title>Input1-&gt;Extra6</title>
<path fill="none" stroke="#000000" d="M51.4928,-103.4667C71.6806,-136.3589 119.0014,-213.4591 143.1925,-252.874"/>
<polygon fill="#000000" stroke="#000000" points="140.3248,-254.8927 148.5388,-261.5847 146.2908,-251.2311 140.3248,-254.8927"/>
</g>
<!-- Input2 -->
<g id="node2" class="node">
<title>Input2</title>
<ellipse fill="#66c2a5" stroke="#000000" cx="42" cy="-304" rx="18" ry="18"/>
</g>
<!-- Input2&#45;&gt;Extra1 -->
<g id="edge7" class="edge">
<title>Input2-&gt;Extra1</title>
<path fill="none" stroke="#000000" d="M57.165,-293.4107C76.9868,-279.5696 111.8897,-255.1977 134.982,-239.0729"/>
<polygon fill="#000000" stroke="#000000" points="137.0029,-241.9306 143.1981,-233.3358 132.9953,-236.1914 137.0029,-241.9306"/>
</g>
<!-- Input2&#45;&gt;Extra2 -->
<g id="edge8" class="edge">
<title>Input2-&gt;Extra2</title>
<path fill="none" stroke="#000000" d="M53.7611,-290.3126C73.9967,-266.7625 115.5411,-218.4133 139.6238,-190.3861"/>
<polygon fill="#000000" stroke="#000000" points="142.3452,-192.5893 146.2078,-182.7237 137.036,-188.0273 142.3452,-192.5893"/>
</g>
<!-- Input2&#45;&gt;Extra3 -->
<g id="edge9" class="edge">
<title>Input2-&gt;Extra3</title>
<path fill="none" stroke="#000000" d="M51.4928,-288.5333C71.6806,-255.6411 119.0014,-178.5409 143.1925,-139.126"/>
<polygon fill="#000000" stroke="#000000" points="146.2908,-140.7689 148.5388,-130.4153 140.3248,-137.1073 146.2908,-140.7689"/>
</g>
<!-- Input2&#45;&gt;Extra4 -->
<g id="edge10" class="edge">
<title>Input2-&gt;Extra4</title>
<path fill="none" stroke="#000000" d="M49.7912,-287.6788C69.6025,-246.1776 122.0169,-136.3783 145.8708,-86.4085"/>
<polygon fill="#000000" stroke="#000000" points="149.0932,-87.7825 150.2427,-77.2502 142.7761,-84.7669 149.0932,-87.7825"/>
</g>
<!-- Input2&#45;&gt;Extra5 -->
<g id="edge11" class="edge">
<title>Input2-&gt;Extra5</title>
<path fill="none" stroke="#000000" d="M59.6179,-308.1007C78.4398,-312.4817 108.5254,-319.4844 130.4763,-324.5936"/>
<polygon fill="#000000" stroke="#000000" points="129.6832,-328.0025 140.2163,-326.8607 131.2701,-321.1847 129.6832,-328.0025"/>
</g>
<!-- Input2&#45;&gt;Extra6 -->
<g id="edge12" class="edge">
<title>Input2-&gt;Extra6</title>
<path fill="none" stroke="#000000" d="M59.6179,-299.8993C78.4398,-295.5183 108.5254,-288.5156 130.4763,-283.4064"/>
<polygon fill="#000000" stroke="#000000" points="131.2701,-286.8153 140.2163,-281.1393 129.6832,-279.9975 131.2701,-286.8153"/>
</g>
<!-- Input3 -->
<g id="node3" class="node">
<title>Input3</title>
<ellipse fill="#66c2a5" stroke="#000000" cx="42" cy="-250" rx="18" ry="18"/>
</g>
<!-- Input3&#45;&gt;Extra1 -->
<g id="edge13" class="edge">
<title>Input3-&gt;Extra1</title>
<path fill="none" stroke="#000000" d="M59.6179,-245.8993C78.4398,-241.5183 108.5254,-234.5156 130.4763,-229.4064"/>
<polygon fill="#000000" stroke="#000000" points="131.2701,-232.8153 140.2163,-227.1393 129.6832,-225.9975 131.2701,-232.8153"/>
</g>
<!-- Input3&#45;&gt;Extra2 -->
<g id="edge14" class="edge">
<title>Input3-&gt;Extra2</title>
<path fill="none" stroke="#000000" d="M57.165,-239.4107C76.9868,-225.5696 111.8897,-201.1977 134.982,-185.0729"/>
<polygon fill="#000000" stroke="#000000" points="137.0029,-187.9306 143.1981,-179.3358 132.9953,-182.1914 137.0029,-187.9306"/>
</g>
<!-- Input3&#45;&gt;Extra3 -->
<g id="edge15" class="edge">
<title>Input3-&gt;Extra3</title>
<path fill="none" stroke="#000000" d="M53.7611,-236.3126C73.9967,-212.7625 115.5411,-164.4133 139.6238,-136.3861"/>
<polygon fill="#000000" stroke="#000000" points="142.3452,-138.5893 146.2078,-128.7237 137.036,-134.0273 142.3452,-138.5893"/>
</g>
<!-- Input3&#45;&gt;Extra4 -->
<g id="edge16" class="edge">
<title>Input3-&gt;Extra4</title>
<path fill="none" stroke="#000000" d="M51.4928,-234.5333C71.6806,-201.6411 119.0014,-124.5409 143.1925,-85.126"/>
<polygon fill="#000000" stroke="#000000" points="146.2908,-86.7689 148.5388,-76.4153 140.3248,-83.1073 146.2908,-86.7689"/>
</g>
<!-- Input3&#45;&gt;Extra5 -->
<g id="edge17" class="edge">
<title>Input3-&gt;Extra5</title>
<path fill="none" stroke="#000000" d="M57.165,-260.5893C76.9868,-274.4304 111.8897,-298.8023 134.982,-314.9271"/>
<polygon fill="#000000" stroke="#000000" points="132.9953,-317.8086 143.1981,-320.6642 137.0029,-312.0694 132.9953,-317.8086"/>
</g>
<!-- Input3&#45;&gt;Extra6 -->
<g id="edge18" class="edge">
<title>Input3-&gt;Extra6</title>
<path fill="none" stroke="#000000" d="M59.6179,-254.1007C78.4398,-258.4817 108.5254,-265.4844 130.4763,-270.5936"/>
<polygon fill="#000000" stroke="#000000" points="129.6832,-274.0025 140.2163,-272.8607 131.2701,-267.1847 129.6832,-274.0025"/>
</g>
<!-- Input4 -->
<g id="node4" class="node">
<title>Input4</title>
<ellipse fill="#66c2a5" stroke="#000000" cx="42" cy="-196" rx="18" ry="18"/>
</g>
<!-- Input4&#45;&gt;Extra1 -->
<g id="edge19" class="edge">
<title>Input4-&gt;Extra1</title>
<path fill="none" stroke="#000000" d="M59.6179,-200.1007C78.4398,-204.4817 108.5254,-211.4844 130.4763,-216.5936"/>
<polygon fill="#000000" stroke="#000000" points="129.6832,-220.0025 140.2163,-218.8607 131.2701,-213.1847 129.6832,-220.0025"/>
</g>
<!-- Input4&#45;&gt;Extra2 -->
<g id="edge20" class="edge">
<title>Input4-&gt;Extra2</title>
<path fill="none" stroke="#000000" d="M59.6179,-191.8993C78.4398,-187.5183 108.5254,-180.5156 130.4763,-175.4064"/>
<polygon fill="#000000" stroke="#000000" points="131.2701,-178.8153 140.2163,-173.1393 129.6832,-171.9975 131.2701,-178.8153"/>
</g>
<!-- Input4&#45;&gt;Extra3 -->
<g id="edge21" class="edge">
<title>Input4-&gt;Extra3</title>
<path fill="none" stroke="#000000" d="M57.165,-185.4107C76.9868,-171.5696 111.8897,-147.1977 134.982,-131.0729"/>
<polygon fill="#000000" stroke="#000000" points="137.0029,-133.9306 143.1981,-125.3358 132.9953,-128.1914 137.0029,-133.9306"/>
</g>
<!-- Input4&#45;&gt;Extra4 -->
<g id="edge22" class="edge">
<title>Input4-&gt;Extra4</title>
<path fill="none" stroke="#000000" d="M53.7611,-182.3126C73.9967,-158.7625 115.5411,-110.4133 139.6238,-82.3861"/>
<polygon fill="#000000" stroke="#000000" points="142.3452,-84.5893 146.2078,-74.7237 137.036,-80.0273 142.3452,-84.5893"/>
</g>
<!-- Input4&#45;&gt;Extra5 -->
<g id="edge23" class="edge">
<title>Input4-&gt;Extra5</title>
<path fill="none" stroke="#000000" d="M53.7611,-209.6874C73.9967,-233.2375 115.5411,-281.5867 139.6238,-309.6139"/>
<polygon fill="#000000" stroke="#000000" points="137.036,-311.9727 146.2078,-317.2763 142.3452,-307.4107 137.036,-311.9727"/>
</g>
<!-- Input4&#45;&gt;Extra6 -->
<g id="edge24" class="edge">
<title>Input4-&gt;Extra6</title>
<path fill="none" stroke="#000000" d="M57.165,-206.5893C76.9868,-220.4304 111.8897,-244.8023 134.982,-260.9271"/>
<polygon fill="#000000" stroke="#000000" points="132.9953,-263.8086 143.1981,-266.6642 137.0029,-258.0694 132.9953,-263.8086"/>
</g>
<!-- Input5 -->
<g id="node5" class="node">
<title>Input5</title>
<ellipse fill="#66c2a5" stroke="#000000" cx="42" cy="-142" rx="18" ry="18"/>
</g>
<!-- Input5&#45;&gt;Extra1 -->
<g id="edge25" class="edge">
<title>Input5-&gt;Extra1</title>
<path fill="none" stroke="#000000" d="M57.165,-152.5893C76.9868,-166.4304 111.8897,-190.8023 134.982,-206.9271"/>
<polygon fill="#000000" stroke="#000000" points="132.9953,-209.8086 143.1981,-212.6642 137.0029,-204.0694 132.9953,-209.8086"/>
</g>
<!-- Input5&#45;&gt;Extra2 -->
<g id="edge26" class="edge">
<title>Input5-&gt;Extra2</title>
<path fill="none" stroke="#000000" d="M59.6179,-146.1007C78.4398,-150.4817 108.5254,-157.4844 130.4763,-162.5936"/>
<polygon fill="#000000" stroke="#000000" points="129.6832,-166.0025 140.2163,-164.8607 131.2701,-159.1847 129.6832,-166.0025"/>
</g>
<!-- Input5&#45;&gt;Extra3 -->
<g id="edge27" class="edge">
<title>Input5-&gt;Extra3</title>
<path fill="none" stroke="#000000" d="M59.6179,-137.8993C78.4398,-133.5183 108.5254,-126.5156 130.4763,-121.4064"/>
<polygon fill="#000000" stroke="#000000" points="131.2701,-124.8153 140.2163,-119.1393 129.6832,-117.9975 131.2701,-124.8153"/>
</g>
<!-- Input5&#45;&gt;Extra4 -->
<g id="edge28" class="edge">
<title>Input5-&gt;Extra4</title>
<path fill="none" stroke="#000000" d="M57.165,-131.4107C76.9868,-117.5696 111.8897,-93.1977 134.982,-77.0729"/>
<polygon fill="#000000" stroke="#000000" points="137.0029,-79.9306 143.1981,-71.3358 132.9953,-74.1914 137.0029,-79.9306"/>
</g>
<!-- Input5&#45;&gt;Extra5 -->
<g id="edge29" class="edge">
<title>Input5-&gt;Extra5</title>
<path fill="none" stroke="#000000" d="M51.4928,-157.4667C71.6806,-190.3589 119.0014,-267.4591 143.1925,-306.874"/>
<polygon fill="#000000" stroke="#000000" points="140.3248,-308.8927 148.5388,-315.5847 146.2908,-305.2311 140.3248,-308.8927"/>
</g>
<!-- Input5&#45;&gt;Extra6 -->
<g id="edge30" class="edge">
<title>Input5-&gt;Extra6</title>
<path fill="none" stroke="#000000" d="M53.7611,-155.6874C73.9967,-179.2375 115.5411,-227.5867 139.6238,-255.6139"/>
<polygon fill="#000000" stroke="#000000" points="137.036,-257.9727 146.2078,-263.2763 142.3452,-253.4107 137.036,-257.9727"/>
</g>
<!-- Hidden1 -->
<g id="node12" class="node">
<title>Hidden1</title>
<ellipse fill="#8da0cb" stroke="#000000" cx="285" cy="-304" rx="18" ry="18"/>
</g>
<!-- Extra1&#45;&gt;Hidden1 -->
<g id="edge31" class="edge">
<title>Extra1-&gt;Hidden1</title>
<path fill="none" stroke="#000000" d="M173.5727,-232.9322C195.3994,-246.8532 235.2879,-272.2938 260.9469,-288.6591"/>
<polygon fill="#000000" stroke="#000000" points="259.3834,-291.8131 269.6966,-294.2396 263.1476,-285.9113 259.3834,-291.8131"/>
</g>
<!-- Hidden2 -->
<g id="node13" class="node">
<title>Hidden2</title>
<ellipse fill="#8da0cb" stroke="#000000" cx="285" cy="-250" rx="18" ry="18"/>
</g>
<!-- Extra1&#45;&gt;Hidden2 -->
<g id="edge32" class="edge">
<title>Extra1-&gt;Hidden2</title>
<path fill="none" stroke="#000000" d="M175.6588,-226.7542C196.7703,-231.2425 232.3567,-238.8081 257.1772,-244.0849"/>
<polygon fill="#000000" stroke="#000000" points="256.5725,-247.5345 267.0818,-246.1906 258.0282,-240.6875 256.5725,-247.5345"/>
</g>
<!-- Hidden3 -->
<g id="node14" class="node">
<title>Hidden3</title>
<ellipse fill="#8da0cb" stroke="#000000" cx="285" cy="-196" rx="18" ry="18"/>
</g>
<!-- Extra1&#45;&gt;Hidden3 -->
<g id="edge33" class="edge">
<title>Extra1-&gt;Hidden3</title>
<path fill="none" stroke="#000000" d="M175.6588,-219.2458C196.7703,-214.7575 232.3567,-207.1919 257.1772,-201.9151"/>
<polygon fill="#000000" stroke="#000000" points="258.0282,-205.3125 267.0818,-199.8094 256.5725,-198.4655 258.0282,-205.3125"/>
</g>
<!-- Hidden4 -->
<g id="node15" class="node">
<title>Hidden4</title>
<ellipse fill="#8da0cb" stroke="#000000" cx="285" cy="-142" rx="18" ry="18"/>
</g>
<!-- Extra1&#45;&gt;Hidden4 -->
<g id="edge34" class="edge">
<title>Extra1-&gt;Hidden4</title>
<path fill="none" stroke="#000000" d="M173.5727,-213.0678C195.3994,-199.1468 235.2879,-173.7062 260.9469,-157.3409"/>
<polygon fill="#000000" stroke="#000000" points="263.1476,-160.0887 269.6966,-151.7604 259.3834,-154.1869 263.1476,-160.0887"/>
</g>
<!-- Hidden5 -->
<g id="node16" class="node">
<title>Hidden5</title>
<ellipse fill="#8da0cb" stroke="#000000" cx="285" cy="-88" rx="18" ry="18"/>
</g>
<!-- Extra1&#45;&gt;Hidden5 -->
<g id="edge35" class="edge">
<title>Extra1-&gt;Hidden5</title>
<path fill="none" stroke="#000000" d="M170.6415,-209.5621C192.8929,-185.9091 239.1888,-136.6969 265.542,-108.6837"/>
<polygon fill="#000000" stroke="#000000" points="268.1068,-111.0653 272.4096,-101.3835 263.0083,-106.2689 268.1068,-111.0653"/>
</g>
<!-- Hidden6 -->
<g id="node17" class="node">
<title>Hidden6</title>
<ellipse fill="#8da0cb" stroke="#000000" cx="285" cy="-34" rx="18" ry="18"/>
</g>
<!-- Extra1&#45;&gt;Hidden6 -->
<g id="edge36" class="edge">
<title>Extra1-&gt;Hidden6</title>
<path fill="none" stroke="#000000" d="M168.1783,-207.8528C190.2475,-175.0096 242.6423,-97.0363 269.1122,-57.644"/>
<polygon fill="#000000" stroke="#000000" points="272.2772,-59.2093 274.9496,-48.957 266.4671,-55.3051 272.2772,-59.2093"/>
</g>
<!-- Hidden7 -->
<g id="node18" class="node">
<title>Hidden7</title>
<ellipse fill="#8da0cb" stroke="#000000" cx="285" cy="-358" rx="18" ry="18"/>
</g>
<!-- Extra1&#45;&gt;Hidden7 -->
<g id="edge37" class="edge">
<title>Extra1-&gt;Hidden7</title>
<path fill="none" stroke="#000000" d="M170.6415,-236.4379C192.8929,-260.0909 239.1888,-309.3031 265.542,-337.3163"/>
<polygon fill="#000000" stroke="#000000" points="263.0083,-339.7311 272.4096,-344.6165 268.1068,-334.9347 263.0083,-339.7311"/>
</g>
<!-- Extra2&#45;&gt;Hidden1 -->
<g id="edge38" class="edge">
<title>Extra2-&gt;Hidden1</title>
<path fill="none" stroke="#000000" d="M170.6415,-182.4379C192.8929,-206.0909 239.1888,-255.3031 265.542,-283.3163"/>
<polygon fill="#000000" stroke="#000000" points="263.0083,-285.7311 272.4096,-290.6165 268.1068,-280.9347 263.0083,-285.7311"/>
</g>
<!-- Extra2&#45;&gt;Hidden2 -->
<g id="edge39" class="edge">
<title>Extra2-&gt;Hidden2</title>
<path fill="none" stroke="#000000" d="M173.5727,-178.9322C195.3994,-192.8532 235.2879,-218.2938 260.9469,-234.6591"/>
<polygon fill="#000000" stroke="#000000" points="259.3834,-237.8131 269.6966,-240.2396 263.1476,-231.9113 259.3834,-237.8131"/>
</g>
<!-- Extra2&#45;&gt;Hidden3 -->
<g id="edge40" class="edge">
<title>Extra2-&gt;Hidden3</title>
<path fill="none" stroke="#000000" d="M175.6588,-172.7542C196.7703,-177.2425 232.3567,-184.8081 257.1772,-190.0849"/>
<polygon fill="#000000" stroke="#000000" points="256.5725,-193.5345 267.0818,-192.1906 258.0282,-186.6875 256.5725,-193.5345"/>
</g>
<!-- Extra2&#45;&gt;Hidden4 -->
<g id="edge41" class="edge">
<title>Extra2-&gt;Hidden4</title>
<path fill="none" stroke="#000000" d="M175.6588,-165.2458C196.7703,-160.7575 232.3567,-153.1919 257.1772,-147.9151"/>
<polygon fill="#000000" stroke="#000000" points="258.0282,-151.3125 267.0818,-145.8094 256.5725,-144.4655 258.0282,-151.3125"/>
</g>
<!-- Extra2&#45;&gt;Hidden5 -->
<g id="edge42" class="edge">
<title>Extra2-&gt;Hidden5</title>
<path fill="none" stroke="#000000" d="M173.5727,-159.0678C195.3994,-145.1468 235.2879,-119.7062 260.9469,-103.3409"/>
<polygon fill="#000000" stroke="#000000" points="263.1476,-106.0887 269.6966,-97.7604 259.3834,-100.1869 263.1476,-106.0887"/>
</g>
<!-- Extra2&#45;&gt;Hidden6 -->
<g id="edge43" class="edge">
<title>Extra2-&gt;Hidden6</title>
<path fill="none" stroke="#000000" d="M170.6415,-155.5621C192.8929,-131.9091 239.1888,-82.6969 265.542,-54.6837"/>
<polygon fill="#000000" stroke="#000000" points="268.1068,-57.0653 272.4096,-47.3835 263.0083,-52.2689 268.1068,-57.0653"/>
</g>
<!-- Extra2&#45;&gt;Hidden7 -->
<g id="edge44" class="edge">
<title>Extra2-&gt;Hidden7</title>
<path fill="none" stroke="#000000" d="M168.1783,-184.1472C190.2475,-216.9904 242.6423,-294.9637 269.1122,-334.356"/>
<polygon fill="#000000" stroke="#000000" points="266.4671,-336.6949 274.9496,-343.043 272.2772,-332.7907 266.4671,-336.6949"/>
</g>
<!-- Extra3&#45;&gt;Hidden1 -->
<g id="edge45" class="edge">
<title>Extra3-&gt;Hidden1</title>
<path fill="none" stroke="#000000" d="M168.1783,-130.1472C190.2475,-162.9904 242.6423,-240.9637 269.1122,-280.356"/>
<polygon fill="#000000" stroke="#000000" points="266.4671,-282.6949 274.9496,-289.043 272.2772,-278.7907 266.4671,-282.6949"/>
</g>
<!-- Extra3&#45;&gt;Hidden2 -->
<g id="edge46" class="edge">
<title>Extra3-&gt;Hidden2</title>
<path fill="none" stroke="#000000" d="M170.6415,-128.4379C192.8929,-152.0909 239.1888,-201.3031 265.542,-229.3163"/>
<polygon fill="#000000" stroke="#000000" points="263.0083,-231.7311 272.4096,-236.6165 268.1068,-226.9347 263.0083,-231.7311"/>
</g>
<!-- Extra3&#45;&gt;Hidden3 -->
<g id="edge47" class="edge">
<title>Extra3-&gt;Hidden3</title>
<path fill="none" stroke="#000000" d="M173.5727,-124.9322C195.3994,-138.8532 235.2879,-164.2938 260.9469,-180.6591"/>
<polygon fill="#000000" stroke="#000000" points="259.3834,-183.8131 269.6966,-186.2396 263.1476,-177.9113 259.3834,-183.8131"/>
</g>
<!-- Extra3&#45;&gt;Hidden4 -->
<g id="edge48" class="edge">
<title>Extra3-&gt;Hidden4</title>
<path fill="none" stroke="#000000" d="M175.6588,-118.7542C196.7703,-123.2425 232.3567,-130.8081 257.1772,-136.0849"/>
<polygon fill="#000000" stroke="#000000" points="256.5725,-139.5345 267.0818,-138.1906 258.0282,-132.6875 256.5725,-139.5345"/>
</g>
<!-- Extra3&#45;&gt;Hidden5 -->
<g id="edge49" class="edge">
<title>Extra3-&gt;Hidden5</title>
<path fill="none" stroke="#000000" d="M175.6588,-111.2458C196.7703,-106.7575 232.3567,-99.1919 257.1772,-93.9151"/>
<polygon fill="#000000" stroke="#000000" points="258.0282,-97.3125 267.0818,-91.8094 256.5725,-90.4655 258.0282,-97.3125"/>
</g>
<!-- Extra3&#45;&gt;Hidden6 -->
<g id="edge50" class="edge">
<title>Extra3-&gt;Hidden6</title>
<path fill="none" stroke="#000000" d="M173.5727,-105.0678C195.3994,-91.1468 235.2879,-65.7062 260.9469,-49.3409"/>
<polygon fill="#000000" stroke="#000000" points="263.1476,-52.0887 269.6966,-43.7604 259.3834,-46.1869 263.1476,-52.0887"/>
</g>
<!-- Extra3&#45;&gt;Hidden7 -->
<g id="edge51" class="edge">
<title>Extra3-&gt;Hidden7</title>
<path fill="none" stroke="#000000" d="M166.53,-131.3212C188.22,-172.8224 245.6047,-282.6217 271.7207,-332.5915"/>
<polygon fill="#000000" stroke="#000000" points="268.7732,-334.5084 276.5071,-341.7498 274.9771,-331.266 268.7732,-334.5084"/>
</g>
<!-- Extra4&#45;&gt;Hidden1 -->
<g id="edge52" class="edge">
<title>Extra4-&gt;Hidden1</title>
<path fill="none" stroke="#000000" d="M166.53,-77.3212C188.22,-118.8224 245.6047,-228.6217 271.7207,-278.5915"/>
<polygon fill="#000000" stroke="#000000" points="268.7732,-280.5084 276.5071,-287.7498 274.9771,-277.266 268.7732,-280.5084"/>
</g>
<!-- Extra4&#45;&gt;Hidden2 -->
<g id="edge53" class="edge">
<title>Extra4-&gt;Hidden2</title>
<path fill="none" stroke="#000000" d="M168.1783,-76.1472C190.2475,-108.9904 242.6423,-186.9637 269.1122,-226.356"/>
<polygon fill="#000000" stroke="#000000" points="266.4671,-228.6949 274.9496,-235.043 272.2772,-224.7907 266.4671,-228.6949"/>
</g>
<!-- Extra4&#45;&gt;Hidden3 -->
<g id="edge54" class="edge">
<title>Extra4-&gt;Hidden3</title>
<path fill="none" stroke="#000000" d="M170.6415,-74.4379C192.8929,-98.0909 239.1888,-147.3031 265.542,-175.3163"/>
<polygon fill="#000000" stroke="#000000" points="263.0083,-177.7311 272.4096,-182.6165 268.1068,-172.9347 263.0083,-177.7311"/>
</g>
<!-- Extra4&#45;&gt;Hidden4 -->
<g id="edge55" class="edge">
<title>Extra4-&gt;Hidden4</title>
<path fill="none" stroke="#000000" d="M173.5727,-70.9322C195.3994,-84.8532 235.2879,-110.2938 260.9469,-126.6591"/>
<polygon fill="#000000" stroke="#000000" points="259.3834,-129.8131 269.6966,-132.2396 263.1476,-123.9113 259.3834,-129.8131"/>
</g>
<!-- Extra4&#45;&gt;Hidden5 -->
<g id="edge56" class="edge">
<title>Extra4-&gt;Hidden5</title>
<path fill="none" stroke="#000000" d="M175.6588,-64.7542C196.7703,-69.2425 232.3567,-76.8081 257.1772,-82.0849"/>
<polygon fill="#000000" stroke="#000000" points="256.5725,-85.5345 267.0818,-84.1906 258.0282,-78.6875 256.5725,-85.5345"/>
</g>
<!-- Extra4&#45;&gt;Hidden6 -->
<g id="edge57" class="edge">
<title>Extra4-&gt;Hidden6</title>
<path fill="none" stroke="#000000" d="M175.6588,-57.2458C196.7703,-52.7575 232.3567,-45.1919 257.1772,-39.9151"/>
<polygon fill="#000000" stroke="#000000" points="258.0282,-43.3125 267.0818,-37.8094 256.5725,-36.4655 258.0282,-43.3125"/>
</g>
<!-- Extra4&#45;&gt;Hidden7 -->
<g id="edge58" class="edge">
<title>Extra4-&gt;Hidden7</title>
<path fill="none" stroke="#000000" d="M165.192,-77.819C186.3229,-127.2354 248.3303,-272.2449 273.8409,-331.9035"/>
<polygon fill="#000000" stroke="#000000" points="270.737,-333.547 277.8869,-341.3655 277.1733,-330.7947 270.737,-333.547"/>
</g>
<!-- Extra5&#45;&gt;Hidden1 -->
<g id="edge59" class="edge">
<title>Extra5-&gt;Hidden1</title>
<path fill="none" stroke="#000000" d="M175.6588,-327.2458C196.7703,-322.7575 232.3567,-315.1919 257.1772,-309.9151"/>
<polygon fill="#000000" stroke="#000000" points="258.0282,-313.3125 267.0818,-307.8094 256.5725,-306.4655 258.0282,-313.3125"/>
</g>
<!-- Extra5&#45;&gt;Hidden2 -->
<g id="edge60" class="edge">
<title>Extra5-&gt;Hidden2</title>
<path fill="none" stroke="#000000" d="M173.5727,-321.0678C195.3994,-307.1468 235.2879,-281.7062 260.9469,-265.3409"/>
<polygon fill="#000000" stroke="#000000" points="263.1476,-268.0887 269.6966,-259.7604 259.3834,-262.1869 263.1476,-268.0887"/>
</g>
<!-- Extra5&#45;&gt;Hidden3 -->
<g id="edge61" class="edge">
<title>Extra5-&gt;Hidden3</title>
<path fill="none" stroke="#000000" d="M170.6415,-317.5621C192.8929,-293.9091 239.1888,-244.6969 265.542,-216.6837"/>
<polygon fill="#000000" stroke="#000000" points="268.1068,-219.0653 272.4096,-209.3835 263.0083,-214.2689 268.1068,-219.0653"/>
</g>
<!-- Extra5&#45;&gt;Hidden4 -->
<g id="edge62" class="edge">
<title>Extra5-&gt;Hidden4</title>
<path fill="none" stroke="#000000" d="M168.1783,-315.8528C190.2475,-283.0096 242.6423,-205.0363 269.1122,-165.644"/>
<polygon fill="#000000" stroke="#000000" points="272.2772,-167.2093 274.9496,-156.957 266.4671,-163.3051 272.2772,-167.2093"/>
</g>
<!-- Extra5&#45;&gt;Hidden5 -->
<g id="edge63" class="edge">
<title>Extra5-&gt;Hidden5</title>
<path fill="none" stroke="#000000" d="M166.53,-314.6788C188.22,-273.1776 245.6047,-163.3783 271.7207,-113.4085"/>
<polygon fill="#000000" stroke="#000000" points="274.9771,-114.734 276.5071,-104.2502 268.7732,-111.4916 274.9771,-114.734"/>
</g>
<!-- Extra5&#45;&gt;Hidden6 -->
<g id="edge64" class="edge">
<title>Extra5-&gt;Hidden6</title>
<path fill="none" stroke="#000000" d="M165.192,-314.181C186.3229,-264.7646 248.3303,-119.7551 273.8409,-60.0965"/>
<polygon fill="#000000" stroke="#000000" points="277.1733,-61.2053 277.8869,-50.6345 270.737,-58.453 277.1733,-61.2053"/>
</g>
<!-- Extra5&#45;&gt;Hidden7 -->
<g id="edge65" class="edge">
<title>Extra5-&gt;Hidden7</title>
<path fill="none" stroke="#000000" d="M175.6588,-334.7542C196.7703,-339.2425 232.3567,-346.8081 257.1772,-352.0849"/>
<polygon fill="#000000" stroke="#000000" points="256.5725,-355.5345 267.0818,-354.1906 258.0282,-348.6875 256.5725,-355.5345"/>
</g>
<!-- Extra6&#45;&gt;Hidden1 -->
<g id="edge66" class="edge">
<title>Extra6-&gt;Hidden1</title>
<path fill="none" stroke="#000000" d="M175.6588,-280.7542C196.7703,-285.2425 232.3567,-292.8081 257.1772,-298.0849"/>
<polygon fill="#000000" stroke="#000000" points="256.5725,-301.5345 267.0818,-300.1906 258.0282,-294.6875 256.5725,-301.5345"/>
</g>
<!-- Extra6&#45;&gt;Hidden2 -->
<g id="edge67" class="edge">
<title>Extra6-&gt;Hidden2</title>
<path fill="none" stroke="#000000" d="M175.6588,-273.2458C196.7703,-268.7575 232.3567,-261.1919 257.1772,-255.9151"/>
<polygon fill="#000000" stroke="#000000" points="258.0282,-259.3125 267.0818,-253.8094 256.5725,-252.4655 258.0282,-259.3125"/>
</g>
<!-- Extra6&#45;&gt;Hidden3 -->
<g id="edge68" class="edge">
<title>Extra6-&gt;Hidden3</title>
<path fill="none" stroke="#000000" d="M173.5727,-267.0678C195.3994,-253.1468 235.2879,-227.7062 260.9469,-211.3409"/>
<polygon fill="#000000" stroke="#000000" points="263.1476,-214.0887 269.6966,-205.7604 259.3834,-208.1869 263.1476,-214.0887"/>
</g>
<!-- Extra6&#45;&gt;Hidden4 -->
<g id="edge69" class="edge">
<title>Extra6-&gt;Hidden4</title>
<path fill="none" stroke="#000000" d="M170.6415,-263.5621C192.8929,-239.9091 239.1888,-190.6969 265.542,-162.6837"/>
<polygon fill="#000000" stroke="#000000" points="268.1068,-165.0653 272.4096,-155.3835 263.0083,-160.2689 268.1068,-165.0653"/>
</g>
<!-- Extra6&#45;&gt;Hidden5 -->
<g id="edge70" class="edge">
<title>Extra6-&gt;Hidden5</title>
<path fill="none" stroke="#000000" d="M168.1783,-261.8528C190.2475,-229.0096 242.6423,-151.0363 269.1122,-111.644"/>
<polygon fill="#000000" stroke="#000000" points="272.2772,-113.2093 274.9496,-102.957 266.4671,-109.3051 272.2772,-113.2093"/>
</g>
<!-- Extra6&#45;&gt;Hidden6 -->
<g id="edge71" class="edge">
<title>Extra6-&gt;Hidden6</title>
<path fill="none" stroke="#000000" d="M166.53,-260.6788C188.22,-219.1776 245.6047,-109.3783 271.7207,-59.4085"/>
<polygon fill="#000000" stroke="#000000" points="274.9771,-60.734 276.5071,-50.2502 268.7732,-57.4916 274.9771,-60.734"/>
</g>
<!-- Extra6&#45;&gt;Hidden7 -->
<g id="edge72" class="edge">
<title>Extra6-&gt;Hidden7</title>
<path fill="none" stroke="#000000" d="M173.5727,-286.9322C195.3994,-300.8532 235.2879,-326.2938 260.9469,-342.6591"/>
<polygon fill="#000000" stroke="#000000" points="259.3834,-345.8131 269.6966,-348.2396 263.1476,-339.9113 259.3834,-345.8131"/>
</g>
<!-- Hidden8 -->
<g id="node19" class="node">
<title>Hidden8</title>
<ellipse fill="#fc8d62" stroke="#000000" cx="412" cy="-304" rx="18" ry="18"/>
</g>
<!-- Hidden1&#45;&gt;Hidden8 -->
<g id="edge73" class="edge">
<title>Hidden1-&gt;Hidden8</title>
<path fill="none" stroke="#000000" d="M303.196,-304C324.2265,-304 359.0906,-304 383.6764,-304"/>
<polygon fill="#000000" stroke="#000000" points="383.8378,-307.5001 393.8378,-304 383.8377,-300.5001 383.8378,-307.5001"/>
</g>
<!-- Hidden9 -->
<g id="node20" class="node">
<title>Hidden9</title>
<ellipse fill="#fc8d62" stroke="#000000" cx="412" cy="-250" rx="18" ry="18"/>
</g>
<!-- Hidden1&#45;&gt;Hidden9 -->
<g id="edge74" class="edge">
<title>Hidden1-&gt;Hidden9</title>
<path fill="none" stroke="#000000" d="M301.603,-296.9404C323.0902,-287.8042 360.764,-271.7854 386.0465,-261.0353"/>
<polygon fill="#000000" stroke="#000000" points="387.5598,-264.1952 395.3929,-257.0613 384.8207,-257.7534 387.5598,-264.1952"/>
</g>
<!-- Hidden10 -->
<g id="node21" class="node">
<title>Hidden10</title>
<ellipse fill="#fc8d62" stroke="#000000" cx="412" cy="-196" rx="18" ry="18"/>
</g>
<!-- Hidden1&#45;&gt;Hidden10 -->
<g id="edge75" class="edge">
<title>Hidden1-&gt;Hidden10</title>
<path fill="none" stroke="#000000" d="M299.0765,-292.0295C321.221,-273.1979 364.352,-236.5195 390.4279,-214.3448"/>
<polygon fill="#000000" stroke="#000000" points="392.896,-216.8404 398.2465,-207.6959 388.3612,-211.5078 392.896,-216.8404"/>
</g>
<!-- Hidden11 -->
<g id="node22" class="node">
<title>Hidden11</title>
<ellipse fill="#fc8d62" stroke="#000000" cx="412" cy="-142" rx="18" ry="18"/>
</g>
<!-- Hidden1&#45;&gt;Hidden11 -->
<g id="edge76" class="edge">
<title>Hidden1-&gt;Hidden11</title>
<path fill="none" stroke="#000000" d="M296.2704,-289.6236C318.432,-261.3544 367.826,-198.3479 394.3517,-164.512"/>
<polygon fill="#000000" stroke="#000000" points="397.1571,-166.6064 400.5723,-156.5771 391.6481,-162.2876 397.1571,-166.6064"/>
</g>
<!-- Hidden12 -->
<g id="node23" class="node">
<title>Hidden12</title>
<ellipse fill="#fc8d62" stroke="#000000" cx="412" cy="-88" rx="18" ry="18"/>
</g>
<!-- Hidden1&#45;&gt;Hidden12 -->
<g id="edge77" class="edge">
<title>Hidden1-&gt;Hidden12</title>
<path fill="none" stroke="#000000" d="M294.1335,-288.4658C315.9568,-251.349 371.2689,-157.2749 397.6181,-112.4606"/>
<polygon fill="#000000" stroke="#000000" points="400.7272,-114.078 402.7786,-103.6837 394.6929,-110.5301 400.7272,-114.078"/>
</g>
<!-- Hidden13 -->
<g id="node24" class="node">
<title>Hidden13</title>
<ellipse fill="#fc8d62" stroke="#000000" cx="412" cy="-34" rx="18" ry="18"/>
</g>
<!-- Hidden1&#45;&gt;Hidden13 -->
<g id="edge78" class="edge">
<title>Hidden1-&gt;Hidden13</title>
<path fill="none" stroke="#000000" d="M292.7532,-287.5167C314.1418,-242.0449 374.0991,-114.5768 399.9207,-59.6805"/>
<polygon fill="#000000" stroke="#000000" points="403.0976,-61.1493 404.1869,-50.6106 396.7633,-58.1698 403.0976,-61.1493"/>
</g>
<!-- Hidden14 -->
<g id="node25" class="node">
<title>Hidden14</title>
<ellipse fill="#fc8d62" stroke="#000000" cx="412" cy="-358" rx="18" ry="18"/>
</g>
<!-- Hidden1&#45;&gt;Hidden14 -->
<g id="edge79" class="edge">
<title>Hidden1-&gt;Hidden14</title>
<path fill="none" stroke="#000000" d="M301.603,-311.0596C323.0902,-320.1958 360.764,-336.2146 386.0465,-346.9647"/>
<polygon fill="#000000" stroke="#000000" points="384.8207,-350.2466 395.3929,-350.9387 387.5598,-343.8048 384.8207,-350.2466"/>
</g>
<!-- Hidden2&#45;&gt;Hidden8 -->
<g id="edge80" class="edge">
<title>Hidden2-&gt;Hidden8</title>
<path fill="none" stroke="#000000" d="M301.603,-257.0596C323.0902,-266.1958 360.764,-282.2146 386.0465,-292.9647"/>
<polygon fill="#000000" stroke="#000000" points="384.8207,-296.2466 395.3929,-296.9387 387.5598,-289.8048 384.8207,-296.2466"/>
</g>
<!-- Hidden2&#45;&gt;Hidden9 -->
<g id="edge81" class="edge">
<title>Hidden2-&gt;Hidden9</title>
<path fill="none" stroke="#000000" d="M303.196,-250C324.2265,-250 359.0906,-250 383.6764,-250"/>
<polygon fill="#000000" stroke="#000000" points="383.8378,-253.5001 393.8378,-250 383.8377,-246.5001 383.8378,-253.5001"/>
</g>
<!-- Hidden2&#45;&gt;Hidden10 -->
<g id="edge82" class="edge">
<title>Hidden2-&gt;Hidden10</title>
<path fill="none" stroke="#000000" d="M301.603,-242.9404C323.0902,-233.8042 360.764,-217.7854 386.0465,-207.0353"/>
<polygon fill="#000000" stroke="#000000" points="387.5598,-210.1952 395.3929,-203.0613 384.8207,-203.7534 387.5598,-210.1952"/>
</g>
<!-- Hidden2&#45;&gt;Hidden11 -->
<g id="edge83" class="edge">
<title>Hidden2-&gt;Hidden11</title>
<path fill="none" stroke="#000000" d="M299.0765,-238.0295C321.221,-219.1979 364.352,-182.5195 390.4279,-160.3448"/>
<polygon fill="#000000" stroke="#000000" points="392.896,-162.8404 398.2465,-153.6959 388.3612,-157.5078 392.896,-162.8404"/>
</g>
<!-- Hidden2&#45;&gt;Hidden12 -->
<g id="edge84" class="edge">
<title>Hidden2-&gt;Hidden12</title>
<path fill="none" stroke="#000000" d="M296.2704,-235.6236C318.432,-207.3544 367.826,-144.3479 394.3517,-110.512"/>
<polygon fill="#000000" stroke="#000000" points="397.1571,-112.6064 400.5723,-102.5771 391.6481,-108.2876 397.1571,-112.6064"/>
</g>
<!-- Hidden2&#45;&gt;Hidden13 -->
<g id="edge85" class="edge">
<title>Hidden2-&gt;Hidden13</title>
<path fill="none" stroke="#000000" d="M294.1335,-234.4658C315.9568,-197.349 371.2689,-103.2749 397.6181,-58.4606"/>
<polygon fill="#000000" stroke="#000000" points="400.7272,-60.078 402.7786,-49.6837 394.6929,-56.5301 400.7272,-60.078"/>
</g>
<!-- Hidden2&#45;&gt;Hidden14 -->
<g id="edge86" class="edge">
<title>Hidden2-&gt;Hidden14</title>
<path fill="none" stroke="#000000" d="M299.0765,-261.9705C321.221,-280.8021 364.352,-317.4805 390.4279,-339.6552"/>
<polygon fill="#000000" stroke="#000000" points="388.3612,-342.4922 398.2465,-346.3041 392.896,-337.1596 388.3612,-342.4922"/>
</g>
<!-- Hidden3&#45;&gt;Hidden8 -->
<g id="edge87" class="edge">
<title>Hidden3-&gt;Hidden8</title>
<path fill="none" stroke="#000000" d="M299.0765,-207.9705C321.221,-226.8021 364.352,-263.4805 390.4279,-285.6552"/>
<polygon fill="#000000" stroke="#000000" points="388.3612,-288.4922 398.2465,-292.3041 392.896,-283.1596 388.3612,-288.4922"/>
</g>
<!-- Hidden3&#45;&gt;Hidden9 -->
<g id="edge88" class="edge">
<title>Hidden3-&gt;Hidden9</title>
<path fill="none" stroke="#000000" d="M301.603,-203.0596C323.0902,-212.1958 360.764,-228.2146 386.0465,-238.9647"/>
<polygon fill="#000000" stroke="#000000" points="384.8207,-242.2466 395.3929,-242.9387 387.5598,-235.8048 384.8207,-242.2466"/>
</g>
<!-- Hidden3&#45;&gt;Hidden10 -->
<g id="edge89" class="edge">
<title>Hidden3-&gt;Hidden10</title>
<path fill="none" stroke="#000000" d="M303.196,-196C324.2265,-196 359.0906,-196 383.6764,-196"/>
<polygon fill="#000000" stroke="#000000" points="383.8378,-199.5001 393.8378,-196 383.8377,-192.5001 383.8378,-199.5001"/>
</g>
<!-- Hidden3&#45;&gt;Hidden11 -->
<g id="edge90" class="edge">
<title>Hidden3-&gt;Hidden11</title>
<path fill="none" stroke="#000000" d="M301.603,-188.9404C323.0902,-179.8042 360.764,-163.7854 386.0465,-153.0353"/>
<polygon fill="#000000" stroke="#000000" points="387.5598,-156.1952 395.3929,-149.0613 384.8207,-149.7534 387.5598,-156.1952"/>
</g>
<!-- Hidden3&#45;&gt;Hidden12 -->
<g id="edge91" class="edge">
<title>Hidden3-&gt;Hidden12</title>
<path fill="none" stroke="#000000" d="M299.0765,-184.0295C321.221,-165.1979 364.352,-128.5195 390.4279,-106.3448"/>
<polygon fill="#000000" stroke="#000000" points="392.896,-108.8404 398.2465,-99.6959 388.3612,-103.5078 392.896,-108.8404"/>
</g>
<!-- Hidden3&#45;&gt;Hidden13 -->
<g id="edge92" class="edge">
<title>Hidden3-&gt;Hidden13</title>
<path fill="none" stroke="#000000" d="M296.2704,-181.6236C318.432,-153.3544 367.826,-90.3479 394.3517,-56.512"/>
<polygon fill="#000000" stroke="#000000" points="397.1571,-58.6064 400.5723,-48.5771 391.6481,-54.2876 397.1571,-58.6064"/>
</g>
<!-- Hidden3&#45;&gt;Hidden14 -->
<g id="edge93" class="edge">
<title>Hidden3-&gt;Hidden14</title>
<path fill="none" stroke="#000000" d="M296.2704,-210.3764C318.432,-238.6456 367.826,-301.6521 394.3517,-335.488"/>
<polygon fill="#000000" stroke="#000000" points="391.6481,-337.7124 400.5723,-343.4229 397.1571,-333.3936 391.6481,-337.7124"/>
</g>
<!-- Hidden4&#45;&gt;Hidden8 -->
<g id="edge94" class="edge">
<title>Hidden4-&gt;Hidden8</title>
<path fill="none" stroke="#000000" d="M296.2704,-156.3764C318.432,-184.6456 367.826,-247.6521 394.3517,-281.488"/>
<polygon fill="#000000" stroke="#000000" points="391.6481,-283.7124 400.5723,-289.4229 397.1571,-279.3936 391.6481,-283.7124"/>
</g>
<!-- Hidden4&#45;&gt;Hidden9 -->
<g id="edge95" class="edge">
<title>Hidden4-&gt;Hidden9</title>
<path fill="none" stroke="#000000" d="M299.0765,-153.9705C321.221,-172.8021 364.352,-209.4805 390.4279,-231.6552"/>
<polygon fill="#000000" stroke="#000000" points="388.3612,-234.4922 398.2465,-238.3041 392.896,-229.1596 388.3612,-234.4922"/>
</g>
<!-- Hidden4&#45;&gt;Hidden10 -->
<g id="edge96" class="edge">
<title>Hidden4-&gt;Hidden10</title>
<path fill="none" stroke="#000000" d="M301.603,-149.0596C323.0902,-158.1958 360.764,-174.2146 386.0465,-184.9647"/>
<polygon fill="#000000" stroke="#000000" points="384.8207,-188.2466 395.3929,-188.9387 387.5598,-181.8048 384.8207,-188.2466"/>
</g>
<!-- Hidden4&#45;&gt;Hidden11 -->
<g id="edge97" class="edge">
<title>Hidden4-&gt;Hidden11</title>
<path fill="none" stroke="#000000" d="M303.196,-142C324.2265,-142 359.0906,-142 383.6764,-142"/>
<polygon fill="#000000" stroke="#000000" points="383.8378,-145.5001 393.8378,-142 383.8377,-138.5001 383.8378,-145.5001"/>
</g>
<!-- Hidden4&#45;&gt;Hidden12 -->
<g id="edge98" class="edge">
<title>Hidden4-&gt;Hidden12</title>
<path fill="none" stroke="#000000" d="M301.603,-134.9404C323.0902,-125.8042 360.764,-109.7854 386.0465,-99.0353"/>
<polygon fill="#000000" stroke="#000000" points="387.5598,-102.1952 395.3929,-95.0613 384.8207,-95.7534 387.5598,-102.1952"/>
</g>
<!-- Hidden4&#45;&gt;Hidden13 -->
<g id="edge99" class="edge">
<title>Hidden4-&gt;Hidden13</title>
<path fill="none" stroke="#000000" d="M299.0765,-130.0295C321.221,-111.1979 364.352,-74.5195 390.4279,-52.3448"/>
<polygon fill="#000000" stroke="#000000" points="392.896,-54.8404 398.2465,-45.6959 388.3612,-49.5078 392.896,-54.8404"/>
</g>
<!-- Hidden4&#45;&gt;Hidden14 -->
<g id="edge100" class="edge">
<title>Hidden4-&gt;Hidden14</title>
<path fill="none" stroke="#000000" d="M294.1335,-157.5342C315.9568,-194.651 371.2689,-288.7251 397.6181,-333.5394"/>
<polygon fill="#000000" stroke="#000000" points="394.6929,-335.4699 402.7786,-342.3163 400.7272,-331.922 394.6929,-335.4699"/>
</g>
<!-- Hidden5&#45;&gt;Hidden8 -->
<g id="edge101" class="edge">
<title>Hidden5-&gt;Hidden8</title>
<path fill="none" stroke="#000000" d="M294.1335,-103.5342C315.9568,-140.651 371.2689,-234.7251 397.6181,-279.5394"/>
<polygon fill="#000000" stroke="#000000" points="394.6929,-281.4699 402.7786,-288.3163 400.7272,-277.922 394.6929,-281.4699"/>
</g>
<!-- Hidden5&#45;&gt;Hidden9 -->
<g id="edge102" class="edge">
<title>Hidden5-&gt;Hidden9</title>
<path fill="none" stroke="#000000" d="M296.2704,-102.3764C318.432,-130.6456 367.826,-193.6521 394.3517,-227.488"/>
<polygon fill="#000000" stroke="#000000" points="391.6481,-229.7124 400.5723,-235.4229 397.1571,-225.3936 391.6481,-229.7124"/>
</g>
<!-- Hidden5&#45;&gt;Hidden10 -->
<g id="edge103" class="edge">
<title>Hidden5-&gt;Hidden10</title>
<path fill="none" stroke="#000000" d="M299.0765,-99.9705C321.221,-118.8021 364.352,-155.4805 390.4279,-177.6552"/>
<polygon fill="#000000" stroke="#000000" points="388.3612,-180.4922 398.2465,-184.3041 392.896,-175.1596 388.3612,-180.4922"/>
</g>
<!-- Hidden5&#45;&gt;Hidden11 -->
<g id="edge104" class="edge">
<title>Hidden5-&gt;Hidden11</title>
<path fill="none" stroke="#000000" d="M301.603,-95.0596C323.0902,-104.1958 360.764,-120.2146 386.0465,-130.9647"/>
<polygon fill="#000000" stroke="#000000" points="384.8207,-134.2466 395.3929,-134.9387 387.5598,-127.8048 384.8207,-134.2466"/>
</g>
<!-- Hidden5&#45;&gt;Hidden12 -->
<g id="edge105" class="edge">
<title>Hidden5-&gt;Hidden12</title>
<path fill="none" stroke="#000000" d="M303.196,-88C324.2265,-88 359.0906,-88 383.6764,-88"/>
<polygon fill="#000000" stroke="#000000" points="383.8378,-91.5001 393.8378,-88 383.8377,-84.5001 383.8378,-91.5001"/>
</g>
<!-- Hidden5&#45;&gt;Hidden13 -->
<g id="edge106" class="edge">
<title>Hidden5-&gt;Hidden13</title>
<path fill="none" stroke="#000000" d="M301.603,-80.9404C323.0902,-71.8042 360.764,-55.7854 386.0465,-45.0353"/>
<polygon fill="#000000" stroke="#000000" points="387.5598,-48.1952 395.3929,-41.0613 384.8207,-41.7534 387.5598,-48.1952"/>
</g>
<!-- Hidden5&#45;&gt;Hidden14 -->
<g id="edge107" class="edge">
<title>Hidden5-&gt;Hidden14</title>
<path fill="none" stroke="#000000" d="M292.7532,-104.4833C314.1418,-149.9551 374.0991,-277.4232 399.9207,-332.3195"/>
<polygon fill="#000000" stroke="#000000" points="396.7633,-333.8302 404.1869,-341.3894 403.0976,-330.8507 396.7633,-333.8302"/>
</g>
<!-- Hidden6&#45;&gt;Hidden8 -->
<g id="edge108" class="edge">
<title>Hidden6-&gt;Hidden8</title>
<path fill="none" stroke="#000000" d="M292.7532,-50.4833C314.1418,-95.9551 374.0991,-223.4232 399.9207,-278.3195"/>
<polygon fill="#000000" stroke="#000000" points="396.7633,-279.8302 404.1869,-287.3894 403.0976,-276.8507 396.7633,-279.8302"/>
</g>
<!-- Hidden6&#45;&gt;Hidden9 -->
<g id="edge109" class="edge">
<title>Hidden6-&gt;Hidden9</title>
<path fill="none" stroke="#000000" d="M294.1335,-49.5342C315.9568,-86.651 371.2689,-180.7251 397.6181,-225.5394"/>
<polygon fill="#000000" stroke="#000000" points="394.6929,-227.4699 402.7786,-234.3163 400.7272,-223.922 394.6929,-227.4699"/>
</g>
<!-- Hidden6&#45;&gt;Hidden10 -->
<g id="edge110" class="edge">
<title>Hidden6-&gt;Hidden10</title>
<path fill="none" stroke="#000000" d="M296.2704,-48.3764C318.432,-76.6456 367.826,-139.6521 394.3517,-173.488"/>
<polygon fill="#000000" stroke="#000000" points="391.6481,-175.7124 400.5723,-181.4229 397.1571,-171.3936 391.6481,-175.7124"/>
</g>
<!-- Hidden6&#45;&gt;Hidden11 -->
<g id="edge111" class="edge">
<title>Hidden6-&gt;Hidden11</title>
<path fill="none" stroke="#000000" d="M299.0765,-45.9705C321.221,-64.8021 364.352,-101.4805 390.4279,-123.6552"/>
<polygon fill="#000000" stroke="#000000" points="388.3612,-126.4922 398.2465,-130.3041 392.896,-121.1596 388.3612,-126.4922"/>
</g>
<!-- Hidden6&#45;&gt;Hidden12 -->
<g id="edge112" class="edge">
<title>Hidden6-&gt;Hidden12</title>
<path fill="none" stroke="#000000" d="M301.603,-41.0596C323.0902,-50.1958 360.764,-66.2146 386.0465,-76.9647"/>
<polygon fill="#000000" stroke="#000000" points="384.8207,-80.2466 395.3929,-80.9387 387.5598,-73.8048 384.8207,-80.2466"/>
</g>
<!-- Hidden6&#45;&gt;Hidden13 -->
<g id="edge113" class="edge">
<title>Hidden6-&gt;Hidden13</title>
<path fill="none" stroke="#000000" d="M303.196,-34C324.2265,-34 359.0906,-34 383.6764,-34"/>
<polygon fill="#000000" stroke="#000000" points="383.8378,-37.5001 393.8378,-34 383.8377,-30.5001 383.8378,-37.5001"/>
</g>
<!-- Hidden6&#45;&gt;Hidden14 -->
<g id="edge114" class="edge">
<title>Hidden6-&gt;Hidden14</title>
<path fill="none" stroke="#000000" d="M291.6493,-50.9635C312.4809,-104.1088 376.5841,-267.6477 401.7282,-331.7948"/>
<polygon fill="#000000" stroke="#000000" points="398.5085,-333.1715 405.4166,-341.2045 405.0257,-330.6168 398.5085,-333.1715"/>
</g>
<!-- Hidden7&#45;&gt;Hidden8 -->
<g id="edge115" class="edge">
<title>Hidden7-&gt;Hidden8</title>
<path fill="none" stroke="#000000" d="M301.603,-350.9404C323.0902,-341.8042 360.764,-325.7854 386.0465,-315.0353"/>
<polygon fill="#000000" stroke="#000000" points="387.5598,-318.1952 395.3929,-311.0613 384.8207,-311.7534 387.5598,-318.1952"/>
</g>
<!-- Hidden7&#45;&gt;Hidden9 -->
<g id="edge116" class="edge">
<title>Hidden7-&gt;Hidden9</title>
<path fill="none" stroke="#000000" d="M299.0765,-346.0295C321.221,-327.1979 364.352,-290.5195 390.4279,-268.3448"/>
<polygon fill="#000000" stroke="#000000" points="392.896,-270.8404 398.2465,-261.6959 388.3612,-265.5078 392.896,-270.8404"/>
</g>
<!-- Hidden7&#45;&gt;Hidden10 -->
<g id="edge117" class="edge">
<title>Hidden7-&gt;Hidden10</title>
<path fill="none" stroke="#000000" d="M296.2704,-343.6236C318.432,-315.3544 367.826,-252.3479 394.3517,-218.512"/>
<polygon fill="#000000" stroke="#000000" points="397.1571,-220.6064 400.5723,-210.5771 391.6481,-216.2876 397.1571,-220.6064"/>
</g>
<!-- Hidden7&#45;&gt;Hidden11 -->
<g id="edge118" class="edge">
<title>Hidden7-&gt;Hidden11</title>
<path fill="none" stroke="#000000" d="M294.1335,-342.4658C315.9568,-305.349 371.2689,-211.2749 397.6181,-166.4606"/>
<polygon fill="#000000" stroke="#000000" points="400.7272,-168.078 402.7786,-157.6837 394.6929,-164.5301 400.7272,-168.078"/>
</g>
<!-- Hidden7&#45;&gt;Hidden12 -->
<g id="edge119" class="edge">
<title>Hidden7-&gt;Hidden12</title>
<path fill="none" stroke="#000000" d="M292.7532,-341.5167C314.1418,-296.0449 374.0991,-168.5768 399.9207,-113.6805"/>
<polygon fill="#000000" stroke="#000000" points="403.0976,-115.1493 404.1869,-104.6106 396.7633,-112.1698 403.0976,-115.1493"/>
</g>
<!-- Hidden7&#45;&gt;Hidden13 -->
<g id="edge120" class="edge">
<title>Hidden7-&gt;Hidden13</title>
<path fill="none" stroke="#000000" d="M291.6493,-341.0365C312.4809,-287.8912 376.5841,-124.3523 401.7282,-60.2052"/>
<polygon fill="#000000" stroke="#000000" points="405.0257,-61.3832 405.4166,-50.7955 398.5085,-58.8285 405.0257,-61.3832"/>
</g>
<!-- Hidden7&#45;&gt;Hidden14 -->
<g id="edge121" class="edge">
<title>Hidden7-&gt;Hidden14</title>
<path fill="none" stroke="#000000" d="M303.196,-358C324.2265,-358 359.0906,-358 383.6764,-358"/>
<polygon fill="#000000" stroke="#000000" points="383.8378,-361.5001 393.8378,-358 383.8377,-354.5001 383.8378,-361.5001"/>
</g>
<!-- Output -->
<g id="node26" class="node">
<title>Output</title>
<ellipse fill="#e78ac3" stroke="#000000" cx="533" cy="-196" rx="18" ry="18"/>
</g>
<!-- Hidden8&#45;&gt;Output -->
<g id="edge122" class="edge">
<title>Hidden8-&gt;Output</title>
<path fill="none" stroke="#000000" d="M425.8802,-291.611C446.8502,-272.894 486.7803,-237.2539 511.5224,-215.1701"/>
<polygon fill="#000000" stroke="#000000" points="514.1518,-217.5146 519.2816,-208.2445 509.4905,-212.2923 514.1518,-217.5146"/>
</g>
<!-- Hidden9&#45;&gt;Output -->
<g id="edge123" class="edge">
<title>Hidden9-&gt;Output</title>
<path fill="none" stroke="#000000" d="M428.8245,-242.4915C449.0523,-233.4643 483.2274,-218.2126 506.8914,-207.6518"/>
<polygon fill="#000000" stroke="#000000" points="508.6129,-210.7163 516.3184,-203.4447 505.7601,-204.324 508.6129,-210.7163"/>
</g>
<!-- Hidden10&#45;&gt;Output -->
<g id="edge124" class="edge">
<title>Hidden10-&gt;Output</title>
<path fill="none" stroke="#000000" d="M430.1149,-196C449.8072,-196 481.5392,-196 504.561,-196"/>
<polygon fill="#000000" stroke="#000000" points="504.7613,-199.5001 514.7612,-196 504.7612,-192.5001 504.7613,-199.5001"/>
</g>
<!-- Hidden11&#45;&gt;Output -->
<g id="edge125" class="edge">
<title>Hidden11-&gt;Output</title>
<path fill="none" stroke="#000000" d="M428.8245,-149.5085C449.0523,-158.5357 483.2274,-173.7874 506.8914,-184.3482"/>
<polygon fill="#000000" stroke="#000000" points="505.7601,-187.676 516.3184,-188.5553 508.6129,-181.2837 505.7601,-187.676"/>
</g>
<!-- Hidden12&#45;&gt;Output -->
<g id="edge126" class="edge">
<title>Hidden12-&gt;Output</title>
<path fill="none" stroke="#000000" d="M425.8802,-100.389C446.8502,-119.106 486.7803,-154.7461 511.5224,-176.8299"/>
<polygon fill="#000000" stroke="#000000" points="509.4905,-179.7077 519.2816,-183.7555 514.1518,-174.4854 509.4905,-179.7077"/>
</g>
<!-- Hidden13&#45;&gt;Output -->
<g id="edge127" class="edge">
<title>Hidden13-&gt;Output</title>
<path fill="none" stroke="#000000" d="M422.9514,-48.6621C444.0986,-76.975 490.6913,-139.3553 515.9373,-173.1557"/>
<polygon fill="#000000" stroke="#000000" points="513.3722,-175.5703 522.1606,-181.4877 518.9805,-171.3814 513.3722,-175.5703"/>
</g>
<!-- Hidden14&#45;&gt;Output -->
<g id="edge128" class="edge">
<title>Hidden14-&gt;Output</title>
<path fill="none" stroke="#000000" d="M422.9514,-343.3379C444.0986,-315.025 490.6913,-252.6447 515.9373,-218.8443"/>
<polygon fill="#000000" stroke="#000000" points="518.9805,-220.6186 522.1606,-210.5123 513.3722,-216.4297 518.9805,-220.6186"/>
</g>
</g>
</svg>